<?xml version="1.0" encoding="utf-8" standalone="no"?>
<!DOCTYPE svg PUBLIC "-//W3C//DTD SVG 1.1//EN"
  "http://www.w3.org/Graphics/SVG/1.1/DTD/svg11.dtd">
<svg xmlns:xlink="http://www.w3.org/1999/xlink" width="1080pt" height="360pt" viewBox="0 0 1080 360" xmlns="http://www.w3.org/2000/svg" version="1.1">
 <metadata>
  <rdf:RDF xmlns:dc="http://purl.org/dc/elements/1.1/" xmlns:cc="http://creativecommons.org/ns#" xmlns:rdf="http://www.w3.org/1999/02/22-rdf-syntax-ns#">
   <cc:Work>
    <dc:type rdf:resource="http://purl.org/dc/dcmitype/StillImage"/>
    <dc:date>2021-11-27T11:09:16.749730</dc:date>
    <dc:format>image/svg+xml</dc:format>
    <dc:creator>
     <cc:Agent>
      <dc:title>Matplotlib v3.5.0, https://matplotlib.org/</dc:title>
     </cc:Agent>
    </dc:creator>
   </cc:Work>
  </rdf:RDF>
 </metadata>
 <defs>
  <style type="text/css">*{stroke-linejoin: round; stroke-linecap: butt}</style>
 </defs>
 <g id="figure_1">
  <g id="patch_1">
   <path d="M 0 360 
L 1080 360 
L 1080 0 
L 0 0 
L 0 360 
z
" style="fill: none"/>
  </g>
  <g id="axes_1">
   <g id="patch_2">
    <path d="M 135 315 
L 381.176471 315 
L 381.176471 43.2 
L 135 43.2 
z
" style="fill: #ffffff"/>
   </g>
   <g id="patch_3">
    <path d="M 141.154412 315 
L 165.772059 315 
L 165.772059 92.755186 
L 141.154412 92.755186 
z
" clip-path="url(#p43588a4232)" style="fill: #3274a1"/>
   </g>
   <g id="patch_4">
    <path d="M 202.698529 315 
L 227.316176 315 
L 227.316176 119.010274 
L 202.698529 119.010274 
z
" clip-path="url(#p43588a4232)" style="fill: #3274a1"/>
   </g>
   <g id="patch_5">
    <path d="M 264.242647 315 
L 288.860294 315 
L 288.860294 180.695695 
L 264.242647 180.695695 
z
" clip-path="url(#p43588a4232)" style="fill: #3274a1"/>
   </g>
   <g id="patch_6">
    <path d="M 325.786765 315 
L 350.404412 315 
L 350.404412 96.035225 
L 325.786765 96.035225 
z
" clip-path="url(#p43588a4232)" style="fill: #3274a1"/>
   </g>
   <g id="patch_7">
    <path d="M 165.772059 315 
L 190.389706 315 
L 190.389706 107.205088 
L 165.772059 107.205088 
z
" clip-path="url(#p43588a4232)" style="fill: #e1812c"/>
   </g>
   <g id="patch_8">
    <path d="M 227.316176 315 
L 251.933824 315 
L 251.933824 138.069961 
L 227.316176 138.069961 
z
" clip-path="url(#p43588a4232)" style="fill: #e1812c"/>
   </g>
   <g id="patch_9">
    <path d="M 288.860294 315 
L 313.477941 315 
L 313.477941 186.014677 
L 288.860294 186.014677 
z
" clip-path="url(#p43588a4232)" style="fill: #e1812c"/>
   </g>
   <g id="patch_10">
    <path d="M 350.404412 315 
L 375.022059 315 
L 375.022059 74.316047 
L 350.404412 74.316047 
z
" clip-path="url(#p43588a4232)" style="fill: #e1812c"/>
   </g>
   <g id="matplotlib.axis_1">
    <g id="xtick_1">
     <g id="line2d_1">
      <defs>
       <path id="m75f4fccc8d" d="M 0 0 
L 0 3.5 
" style="stroke: #000000; stroke-width: 0.8"/>
      </defs>
      <g>
       <use xlink:href="#m75f4fccc8d" x="165.772059" y="315" style="stroke: #000000; stroke-width: 0.8"/>
      </g>
     </g>
     <g id="text_1">
      <!-- ~10MB -->
      <g transform="translate(147.475184 329.598437)scale(0.1 -0.1)">
       <defs>
        <path id="DejaVuSans-7e" d="M 4684 2553 
L 4684 1997 
Q 4356 1750 4076 1644 
Q 3797 1538 3494 1538 
Q 3150 1538 2694 1722 
Q 2659 1734 2644 1741 
Q 2622 1750 2575 1766 
Q 2091 1959 1797 1959 
Q 1522 1959 1253 1839 
Q 984 1719 678 1459 
L 678 2016 
Q 1006 2263 1286 2370 
Q 1566 2478 1869 2478 
Q 2213 2478 2672 2291 
Q 2703 2278 2719 2272 
Q 2744 2263 2788 2247 
Q 3272 2053 3566 2053 
Q 3834 2053 4098 2172 
Q 4363 2291 4684 2553 
z
" transform="scale(0.015625)"/>
        <path id="DejaVuSans-31" d="M 794 531 
L 1825 531 
L 1825 4091 
L 703 3866 
L 703 4441 
L 1819 4666 
L 2450 4666 
L 2450 531 
L 3481 531 
L 3481 0 
L 794 0 
L 794 531 
z
" transform="scale(0.015625)"/>
        <path id="DejaVuSans-30" d="M 2034 4250 
Q 1547 4250 1301 3770 
Q 1056 3291 1056 2328 
Q 1056 1369 1301 889 
Q 1547 409 2034 409 
Q 2525 409 2770 889 
Q 3016 1369 3016 2328 
Q 3016 3291 2770 3770 
Q 2525 4250 2034 4250 
z
M 2034 4750 
Q 2819 4750 3233 4129 
Q 3647 3509 3647 2328 
Q 3647 1150 3233 529 
Q 2819 -91 2034 -91 
Q 1250 -91 836 529 
Q 422 1150 422 2328 
Q 422 3509 836 4129 
Q 1250 4750 2034 4750 
z
" transform="scale(0.015625)"/>
        <path id="DejaVuSans-4d" d="M 628 4666 
L 1569 4666 
L 2759 1491 
L 3956 4666 
L 4897 4666 
L 4897 0 
L 4281 0 
L 4281 4097 
L 3078 897 
L 2444 897 
L 1241 4097 
L 1241 0 
L 628 0 
L 628 4666 
z
" transform="scale(0.015625)"/>
        <path id="DejaVuSans-42" d="M 1259 2228 
L 1259 519 
L 2272 519 
Q 2781 519 3026 730 
Q 3272 941 3272 1375 
Q 3272 1813 3026 2020 
Q 2781 2228 2272 2228 
L 1259 2228 
z
M 1259 4147 
L 1259 2741 
L 2194 2741 
Q 2656 2741 2882 2914 
Q 3109 3088 3109 3444 
Q 3109 3797 2882 3972 
Q 2656 4147 2194 4147 
L 1259 4147 
z
M 628 4666 
L 2241 4666 
Q 2963 4666 3353 4366 
Q 3744 4066 3744 3513 
Q 3744 3084 3544 2831 
Q 3344 2578 2956 2516 
Q 3422 2416 3680 2098 
Q 3938 1781 3938 1306 
Q 3938 681 3513 340 
Q 3088 0 2303 0 
L 628 0 
L 628 4666 
z
" transform="scale(0.015625)"/>
       </defs>
       <use xlink:href="#DejaVuSans-7e"/>
       <use xlink:href="#DejaVuSans-31" x="83.789062"/>
       <use xlink:href="#DejaVuSans-30" x="147.412109"/>
       <use xlink:href="#DejaVuSans-4d" x="211.035156"/>
       <use xlink:href="#DejaVuSans-42" x="297.314453"/>
      </g>
     </g>
    </g>
    <g id="xtick_2">
     <g id="line2d_2">
      <g>
       <use xlink:href="#m75f4fccc8d" x="227.316176" y="315" style="stroke: #000000; stroke-width: 0.8"/>
      </g>
     </g>
     <g id="text_2">
      <!-- ~100MB -->
      <g transform="translate(205.838051 329.598437)scale(0.1 -0.1)">
       <use xlink:href="#DejaVuSans-7e"/>
       <use xlink:href="#DejaVuSans-31" x="83.789062"/>
       <use xlink:href="#DejaVuSans-30" x="147.412109"/>
       <use xlink:href="#DejaVuSans-30" x="211.035156"/>
       <use xlink:href="#DejaVuSans-4d" x="274.658203"/>
       <use xlink:href="#DejaVuSans-42" x="360.9375"/>
      </g>
     </g>
    </g>
    <g id="xtick_3">
     <g id="line2d_3">
      <g>
       <use xlink:href="#m75f4fccc8d" x="288.860294" y="315" style="stroke: #000000; stroke-width: 0.8"/>
      </g>
     </g>
     <g id="text_3">
      <!-- ~250MB -->
      <g transform="translate(267.382169 329.598437)scale(0.1 -0.1)">
       <defs>
        <path id="DejaVuSans-32" d="M 1228 531 
L 3431 531 
L 3431 0 
L 469 0 
L 469 531 
Q 828 903 1448 1529 
Q 2069 2156 2228 2338 
Q 2531 2678 2651 2914 
Q 2772 3150 2772 3378 
Q 2772 3750 2511 3984 
Q 2250 4219 1831 4219 
Q 1534 4219 1204 4116 
Q 875 4013 500 3803 
L 500 4441 
Q 881 4594 1212 4672 
Q 1544 4750 1819 4750 
Q 2544 4750 2975 4387 
Q 3406 4025 3406 3419 
Q 3406 3131 3298 2873 
Q 3191 2616 2906 2266 
Q 2828 2175 2409 1742 
Q 1991 1309 1228 531 
z
" transform="scale(0.015625)"/>
        <path id="DejaVuSans-35" d="M 691 4666 
L 3169 4666 
L 3169 4134 
L 1269 4134 
L 1269 2991 
Q 1406 3038 1543 3061 
Q 1681 3084 1819 3084 
Q 2600 3084 3056 2656 
Q 3513 2228 3513 1497 
Q 3513 744 3044 326 
Q 2575 -91 1722 -91 
Q 1428 -91 1123 -41 
Q 819 9 494 109 
L 494 744 
Q 775 591 1075 516 
Q 1375 441 1709 441 
Q 2250 441 2565 725 
Q 2881 1009 2881 1497 
Q 2881 1984 2565 2268 
Q 2250 2553 1709 2553 
Q 1456 2553 1204 2497 
Q 953 2441 691 2322 
L 691 4666 
z
" transform="scale(0.015625)"/>
       </defs>
       <use xlink:href="#DejaVuSans-7e"/>
       <use xlink:href="#DejaVuSans-32" x="83.789062"/>
       <use xlink:href="#DejaVuSans-35" x="147.412109"/>
       <use xlink:href="#DejaVuSans-30" x="211.035156"/>
       <use xlink:href="#DejaVuSans-4d" x="274.658203"/>
       <use xlink:href="#DejaVuSans-42" x="360.9375"/>
      </g>
     </g>
    </g>
    <g id="xtick_4">
     <g id="line2d_4">
      <g>
       <use xlink:href="#m75f4fccc8d" x="350.404412" y="315" style="stroke: #000000; stroke-width: 0.8"/>
      </g>
     </g>
     <g id="text_4">
      <!-- ~2GB -->
      <g transform="translate(335.728631 329.598437)scale(0.1 -0.1)">
       <defs>
        <path id="DejaVuSans-47" d="M 3809 666 
L 3809 1919 
L 2778 1919 
L 2778 2438 
L 4434 2438 
L 4434 434 
Q 4069 175 3628 42 
Q 3188 -91 2688 -91 
Q 1594 -91 976 548 
Q 359 1188 359 2328 
Q 359 3472 976 4111 
Q 1594 4750 2688 4750 
Q 3144 4750 3555 4637 
Q 3966 4525 4313 4306 
L 4313 3634 
Q 3963 3931 3569 4081 
Q 3175 4231 2741 4231 
Q 1884 4231 1454 3753 
Q 1025 3275 1025 2328 
Q 1025 1384 1454 906 
Q 1884 428 2741 428 
Q 3075 428 3337 486 
Q 3600 544 3809 666 
z
" transform="scale(0.015625)"/>
       </defs>
       <use xlink:href="#DejaVuSans-7e"/>
       <use xlink:href="#DejaVuSans-32" x="83.789062"/>
       <use xlink:href="#DejaVuSans-47" x="147.412109"/>
       <use xlink:href="#DejaVuSans-42" x="224.902344"/>
      </g>
     </g>
    </g>
    <g id="text_5">
     <!-- Tamanho do arquivo Label -->
     <g transform="translate(192.190579 343.276563)scale(0.1 -0.1)">
      <defs>
       <path id="DejaVuSans-54" d="M -19 4666 
L 3928 4666 
L 3928 4134 
L 2272 4134 
L 2272 0 
L 1638 0 
L 1638 4134 
L -19 4134 
L -19 4666 
z
" transform="scale(0.015625)"/>
       <path id="DejaVuSans-61" d="M 2194 1759 
Q 1497 1759 1228 1600 
Q 959 1441 959 1056 
Q 959 750 1161 570 
Q 1363 391 1709 391 
Q 2188 391 2477 730 
Q 2766 1069 2766 1631 
L 2766 1759 
L 2194 1759 
z
M 3341 1997 
L 3341 0 
L 2766 0 
L 2766 531 
Q 2569 213 2275 61 
Q 1981 -91 1556 -91 
Q 1019 -91 701 211 
Q 384 513 384 1019 
Q 384 1609 779 1909 
Q 1175 2209 1959 2209 
L 2766 2209 
L 2766 2266 
Q 2766 2663 2505 2880 
Q 2244 3097 1772 3097 
Q 1472 3097 1187 3025 
Q 903 2953 641 2809 
L 641 3341 
Q 956 3463 1253 3523 
Q 1550 3584 1831 3584 
Q 2591 3584 2966 3190 
Q 3341 2797 3341 1997 
z
" transform="scale(0.015625)"/>
       <path id="DejaVuSans-6d" d="M 3328 2828 
Q 3544 3216 3844 3400 
Q 4144 3584 4550 3584 
Q 5097 3584 5394 3201 
Q 5691 2819 5691 2113 
L 5691 0 
L 5113 0 
L 5113 2094 
Q 5113 2597 4934 2840 
Q 4756 3084 4391 3084 
Q 3944 3084 3684 2787 
Q 3425 2491 3425 1978 
L 3425 0 
L 2847 0 
L 2847 2094 
Q 2847 2600 2669 2842 
Q 2491 3084 2119 3084 
Q 1678 3084 1418 2786 
Q 1159 2488 1159 1978 
L 1159 0 
L 581 0 
L 581 3500 
L 1159 3500 
L 1159 2956 
Q 1356 3278 1631 3431 
Q 1906 3584 2284 3584 
Q 2666 3584 2933 3390 
Q 3200 3197 3328 2828 
z
" transform="scale(0.015625)"/>
       <path id="DejaVuSans-6e" d="M 3513 2113 
L 3513 0 
L 2938 0 
L 2938 2094 
Q 2938 2591 2744 2837 
Q 2550 3084 2163 3084 
Q 1697 3084 1428 2787 
Q 1159 2491 1159 1978 
L 1159 0 
L 581 0 
L 581 3500 
L 1159 3500 
L 1159 2956 
Q 1366 3272 1645 3428 
Q 1925 3584 2291 3584 
Q 2894 3584 3203 3211 
Q 3513 2838 3513 2113 
z
" transform="scale(0.015625)"/>
       <path id="DejaVuSans-68" d="M 3513 2113 
L 3513 0 
L 2938 0 
L 2938 2094 
Q 2938 2591 2744 2837 
Q 2550 3084 2163 3084 
Q 1697 3084 1428 2787 
Q 1159 2491 1159 1978 
L 1159 0 
L 581 0 
L 581 4863 
L 1159 4863 
L 1159 2956 
Q 1366 3272 1645 3428 
Q 1925 3584 2291 3584 
Q 2894 3584 3203 3211 
Q 3513 2838 3513 2113 
z
" transform="scale(0.015625)"/>
       <path id="DejaVuSans-6f" d="M 1959 3097 
Q 1497 3097 1228 2736 
Q 959 2375 959 1747 
Q 959 1119 1226 758 
Q 1494 397 1959 397 
Q 2419 397 2687 759 
Q 2956 1122 2956 1747 
Q 2956 2369 2687 2733 
Q 2419 3097 1959 3097 
z
M 1959 3584 
Q 2709 3584 3137 3096 
Q 3566 2609 3566 1747 
Q 3566 888 3137 398 
Q 2709 -91 1959 -91 
Q 1206 -91 779 398 
Q 353 888 353 1747 
Q 353 2609 779 3096 
Q 1206 3584 1959 3584 
z
" transform="scale(0.015625)"/>
       <path id="DejaVuSans-20" transform="scale(0.015625)"/>
       <path id="DejaVuSans-64" d="M 2906 2969 
L 2906 4863 
L 3481 4863 
L 3481 0 
L 2906 0 
L 2906 525 
Q 2725 213 2448 61 
Q 2172 -91 1784 -91 
Q 1150 -91 751 415 
Q 353 922 353 1747 
Q 353 2572 751 3078 
Q 1150 3584 1784 3584 
Q 2172 3584 2448 3432 
Q 2725 3281 2906 2969 
z
M 947 1747 
Q 947 1113 1208 752 
Q 1469 391 1925 391 
Q 2381 391 2643 752 
Q 2906 1113 2906 1747 
Q 2906 2381 2643 2742 
Q 2381 3103 1925 3103 
Q 1469 3103 1208 2742 
Q 947 2381 947 1747 
z
" transform="scale(0.015625)"/>
       <path id="DejaVuSans-72" d="M 2631 2963 
Q 2534 3019 2420 3045 
Q 2306 3072 2169 3072 
Q 1681 3072 1420 2755 
Q 1159 2438 1159 1844 
L 1159 0 
L 581 0 
L 581 3500 
L 1159 3500 
L 1159 2956 
Q 1341 3275 1631 3429 
Q 1922 3584 2338 3584 
Q 2397 3584 2469 3576 
Q 2541 3569 2628 3553 
L 2631 2963 
z
" transform="scale(0.015625)"/>
       <path id="DejaVuSans-71" d="M 947 1747 
Q 947 1113 1208 752 
Q 1469 391 1925 391 
Q 2381 391 2643 752 
Q 2906 1113 2906 1747 
Q 2906 2381 2643 2742 
Q 2381 3103 1925 3103 
Q 1469 3103 1208 2742 
Q 947 2381 947 1747 
z
M 2906 525 
Q 2725 213 2448 61 
Q 2172 -91 1784 -91 
Q 1150 -91 751 415 
Q 353 922 353 1747 
Q 353 2572 751 3078 
Q 1150 3584 1784 3584 
Q 2172 3584 2448 3432 
Q 2725 3281 2906 2969 
L 2906 3500 
L 3481 3500 
L 3481 -1331 
L 2906 -1331 
L 2906 525 
z
" transform="scale(0.015625)"/>
       <path id="DejaVuSans-75" d="M 544 1381 
L 544 3500 
L 1119 3500 
L 1119 1403 
Q 1119 906 1312 657 
Q 1506 409 1894 409 
Q 2359 409 2629 706 
Q 2900 1003 2900 1516 
L 2900 3500 
L 3475 3500 
L 3475 0 
L 2900 0 
L 2900 538 
Q 2691 219 2414 64 
Q 2138 -91 1772 -91 
Q 1169 -91 856 284 
Q 544 659 544 1381 
z
M 1991 3584 
L 1991 3584 
z
" transform="scale(0.015625)"/>
       <path id="DejaVuSans-69" d="M 603 3500 
L 1178 3500 
L 1178 0 
L 603 0 
L 603 3500 
z
M 603 4863 
L 1178 4863 
L 1178 4134 
L 603 4134 
L 603 4863 
z
" transform="scale(0.015625)"/>
       <path id="DejaVuSans-76" d="M 191 3500 
L 800 3500 
L 1894 563 
L 2988 3500 
L 3597 3500 
L 2284 0 
L 1503 0 
L 191 3500 
z
" transform="scale(0.015625)"/>
       <path id="DejaVuSans-4c" d="M 628 4666 
L 1259 4666 
L 1259 531 
L 3531 531 
L 3531 0 
L 628 0 
L 628 4666 
z
" transform="scale(0.015625)"/>
       <path id="DejaVuSans-62" d="M 3116 1747 
Q 3116 2381 2855 2742 
Q 2594 3103 2138 3103 
Q 1681 3103 1420 2742 
Q 1159 2381 1159 1747 
Q 1159 1113 1420 752 
Q 1681 391 2138 391 
Q 2594 391 2855 752 
Q 3116 1113 3116 1747 
z
M 1159 2969 
Q 1341 3281 1617 3432 
Q 1894 3584 2278 3584 
Q 2916 3584 3314 3078 
Q 3713 2572 3713 1747 
Q 3713 922 3314 415 
Q 2916 -91 2278 -91 
Q 1894 -91 1617 61 
Q 1341 213 1159 525 
L 1159 0 
L 581 0 
L 581 4863 
L 1159 4863 
L 1159 2969 
z
" transform="scale(0.015625)"/>
       <path id="DejaVuSans-65" d="M 3597 1894 
L 3597 1613 
L 953 1613 
Q 991 1019 1311 708 
Q 1631 397 2203 397 
Q 2534 397 2845 478 
Q 3156 559 3463 722 
L 3463 178 
Q 3153 47 2828 -22 
Q 2503 -91 2169 -91 
Q 1331 -91 842 396 
Q 353 884 353 1716 
Q 353 2575 817 3079 
Q 1281 3584 2069 3584 
Q 2775 3584 3186 3129 
Q 3597 2675 3597 1894 
z
M 3022 2063 
Q 3016 2534 2758 2815 
Q 2500 3097 2075 3097 
Q 1594 3097 1305 2825 
Q 1016 2553 972 2059 
L 3022 2063 
z
" transform="scale(0.015625)"/>
       <path id="DejaVuSans-6c" d="M 603 4863 
L 1178 4863 
L 1178 0 
L 603 0 
L 603 4863 
z
" transform="scale(0.015625)"/>
      </defs>
      <use xlink:href="#DejaVuSans-54"/>
      <use xlink:href="#DejaVuSans-61" x="44.583984"/>
      <use xlink:href="#DejaVuSans-6d" x="105.863281"/>
      <use xlink:href="#DejaVuSans-61" x="203.275391"/>
      <use xlink:href="#DejaVuSans-6e" x="264.554688"/>
      <use xlink:href="#DejaVuSans-68" x="327.933594"/>
      <use xlink:href="#DejaVuSans-6f" x="391.3125"/>
      <use xlink:href="#DejaVuSans-20" x="452.494141"/>
      <use xlink:href="#DejaVuSans-64" x="484.28125"/>
      <use xlink:href="#DejaVuSans-6f" x="547.757812"/>
      <use xlink:href="#DejaVuSans-20" x="608.939453"/>
      <use xlink:href="#DejaVuSans-61" x="640.726562"/>
      <use xlink:href="#DejaVuSans-72" x="702.005859"/>
      <use xlink:href="#DejaVuSans-71" x="741.369141"/>
      <use xlink:href="#DejaVuSans-75" x="804.845703"/>
      <use xlink:href="#DejaVuSans-69" x="868.224609"/>
      <use xlink:href="#DejaVuSans-76" x="896.007812"/>
      <use xlink:href="#DejaVuSans-6f" x="955.1875"/>
      <use xlink:href="#DejaVuSans-20" x="1016.369141"/>
      <use xlink:href="#DejaVuSans-4c" x="1048.15625"/>
      <use xlink:href="#DejaVuSans-61" x="1103.869141"/>
      <use xlink:href="#DejaVuSans-62" x="1165.148438"/>
      <use xlink:href="#DejaVuSans-65" x="1228.625"/>
      <use xlink:href="#DejaVuSans-6c" x="1290.148438"/>
     </g>
    </g>
   </g>
   <g id="matplotlib.axis_2">
    <g id="ytick_1">
     <g id="line2d_5">
      <defs>
       <path id="m0cda7be15a" d="M 0 0 
L -3.5 0 
" style="stroke: #000000; stroke-width: 0.8"/>
      </defs>
      <g>
       <use xlink:href="#m0cda7be15a" x="135" y="315" style="stroke: #000000; stroke-width: 0.8"/>
      </g>
     </g>
     <g id="text_6">
      <!-- 0.0 -->
      <g transform="translate(112.096875 318.799219)scale(0.1 -0.1)">
       <defs>
        <path id="DejaVuSans-2e" d="M 684 794 
L 1344 794 
L 1344 0 
L 684 0 
L 684 794 
z
" transform="scale(0.015625)"/>
       </defs>
       <use xlink:href="#DejaVuSans-30"/>
       <use xlink:href="#DejaVuSans-2e" x="63.623047"/>
       <use xlink:href="#DejaVuSans-30" x="95.410156"/>
      </g>
     </g>
    </g>
    <g id="ytick_2">
     <g id="line2d_6">
      <g>
       <use xlink:href="#m0cda7be15a" x="135" y="270.675147" style="stroke: #000000; stroke-width: 0.8"/>
      </g>
     </g>
     <g id="text_7">
      <!-- 0.5 -->
      <g transform="translate(112.096875 274.474366)scale(0.1 -0.1)">
       <use xlink:href="#DejaVuSans-30"/>
       <use xlink:href="#DejaVuSans-2e" x="63.623047"/>
       <use xlink:href="#DejaVuSans-35" x="95.410156"/>
      </g>
     </g>
    </g>
    <g id="ytick_3">
     <g id="line2d_7">
      <g>
       <use xlink:href="#m0cda7be15a" x="135" y="226.350294" style="stroke: #000000; stroke-width: 0.8"/>
      </g>
     </g>
     <g id="text_8">
      <!-- 1.0 -->
      <g transform="translate(112.096875 230.149512)scale(0.1 -0.1)">
       <use xlink:href="#DejaVuSans-31"/>
       <use xlink:href="#DejaVuSans-2e" x="63.623047"/>
       <use xlink:href="#DejaVuSans-30" x="95.410156"/>
      </g>
     </g>
    </g>
    <g id="ytick_4">
     <g id="line2d_8">
      <g>
       <use xlink:href="#m0cda7be15a" x="135" y="182.02544" style="stroke: #000000; stroke-width: 0.8"/>
      </g>
     </g>
     <g id="text_9">
      <!-- 1.5 -->
      <g transform="translate(112.096875 185.824659)scale(0.1 -0.1)">
       <use xlink:href="#DejaVuSans-31"/>
       <use xlink:href="#DejaVuSans-2e" x="63.623047"/>
       <use xlink:href="#DejaVuSans-35" x="95.410156"/>
      </g>
     </g>
    </g>
    <g id="ytick_5">
     <g id="line2d_9">
      <g>
       <use xlink:href="#m0cda7be15a" x="135" y="137.700587" style="stroke: #000000; stroke-width: 0.8"/>
      </g>
     </g>
     <g id="text_10">
      <!-- 2.0 -->
      <g transform="translate(112.096875 141.499806)scale(0.1 -0.1)">
       <use xlink:href="#DejaVuSans-32"/>
       <use xlink:href="#DejaVuSans-2e" x="63.623047"/>
       <use xlink:href="#DejaVuSans-30" x="95.410156"/>
      </g>
     </g>
    </g>
    <g id="ytick_6">
     <g id="line2d_10">
      <g>
       <use xlink:href="#m0cda7be15a" x="135" y="93.375734" style="stroke: #000000; stroke-width: 0.8"/>
      </g>
     </g>
     <g id="text_11">
      <!-- 2.5 -->
      <g transform="translate(112.096875 97.174953)scale(0.1 -0.1)">
       <use xlink:href="#DejaVuSans-32"/>
       <use xlink:href="#DejaVuSans-2e" x="63.623047"/>
       <use xlink:href="#DejaVuSans-35" x="95.410156"/>
      </g>
     </g>
    </g>
    <g id="ytick_7">
     <g id="line2d_11">
      <g>
       <use xlink:href="#m0cda7be15a" x="135" y="49.050881" style="stroke: #000000; stroke-width: 0.8"/>
      </g>
     </g>
     <g id="text_12">
      <!-- 3.0 -->
      <g transform="translate(112.096875 52.850099)scale(0.1 -0.1)">
       <defs>
        <path id="DejaVuSans-33" d="M 2597 2516 
Q 3050 2419 3304 2112 
Q 3559 1806 3559 1356 
Q 3559 666 3084 287 
Q 2609 -91 1734 -91 
Q 1441 -91 1130 -33 
Q 819 25 488 141 
L 488 750 
Q 750 597 1062 519 
Q 1375 441 1716 441 
Q 2309 441 2620 675 
Q 2931 909 2931 1356 
Q 2931 1769 2642 2001 
Q 2353 2234 1838 2234 
L 1294 2234 
L 1294 2753 
L 1863 2753 
Q 2328 2753 2575 2939 
Q 2822 3125 2822 3475 
Q 2822 3834 2567 4026 
Q 2313 4219 1838 4219 
Q 1578 4219 1281 4162 
Q 984 4106 628 3988 
L 628 4550 
Q 988 4650 1302 4700 
Q 1616 4750 1894 4750 
Q 2613 4750 3031 4423 
Q 3450 4097 3450 3541 
Q 3450 3153 3228 2886 
Q 3006 2619 2597 2516 
z
" transform="scale(0.015625)"/>
       </defs>
       <use xlink:href="#DejaVuSans-33"/>
       <use xlink:href="#DejaVuSans-2e" x="63.623047"/>
       <use xlink:href="#DejaVuSans-30" x="95.410156"/>
      </g>
     </g>
    </g>
    <g id="text_13">
     <!-- Tempo de deleção de Registro -->
     <g transform="translate(106.017187 254.3875)rotate(-90)scale(0.1 -0.1)">
      <defs>
       <path id="DejaVuSans-70" d="M 1159 525 
L 1159 -1331 
L 581 -1331 
L 581 3500 
L 1159 3500 
L 1159 2969 
Q 1341 3281 1617 3432 
Q 1894 3584 2278 3584 
Q 2916 3584 3314 3078 
Q 3713 2572 3713 1747 
Q 3713 922 3314 415 
Q 2916 -91 2278 -91 
Q 1894 -91 1617 61 
Q 1341 213 1159 525 
z
M 3116 1747 
Q 3116 2381 2855 2742 
Q 2594 3103 2138 3103 
Q 1681 3103 1420 2742 
Q 1159 2381 1159 1747 
Q 1159 1113 1420 752 
Q 1681 391 2138 391 
Q 2594 391 2855 752 
Q 3116 1113 3116 1747 
z
" transform="scale(0.015625)"/>
       <path id="DejaVuSans-e7" d="M 3122 3366 
L 3122 2828 
Q 2878 2963 2633 3030 
Q 2388 3097 2138 3097 
Q 1578 3097 1268 2742 
Q 959 2388 959 1747 
Q 959 1106 1268 751 
Q 1578 397 2138 397 
Q 2388 397 2633 464 
Q 2878 531 3122 666 
L 3122 134 
Q 2881 22 2623 -34 
Q 2366 -91 2075 -91 
Q 1284 -91 818 406 
Q 353 903 353 1747 
Q 353 2603 823 3093 
Q 1294 3584 2113 3584 
Q 2378 3584 2631 3529 
Q 2884 3475 3122 3366 
z
M 2311 0 
Q 2482 -194 2566 -358 
Q 2651 -522 2651 -672 
Q 2651 -950 2463 -1092 
Q 2276 -1234 1907 -1234 
Q 1764 -1234 1628 -1215 
Q 1492 -1197 1357 -1159 
L 1357 -750 
Q 1464 -803 1579 -826 
Q 1695 -850 1842 -850 
Q 2026 -850 2120 -775 
Q 2214 -700 2214 -556 
Q 2214 -463 2146 -327 
Q 2079 -191 1939 0 
L 2311 0 
z
" transform="scale(0.015625)"/>
       <path id="DejaVuSans-e3" d="M 2194 1759 
Q 1497 1759 1228 1600 
Q 959 1441 959 1056 
Q 959 750 1161 570 
Q 1363 391 1709 391 
Q 2188 391 2477 730 
Q 2766 1069 2766 1631 
L 2766 1759 
L 2194 1759 
z
M 3341 1997 
L 3341 0 
L 2766 0 
L 2766 531 
Q 2569 213 2275 61 
Q 1981 -91 1556 -91 
Q 1019 -91 701 211 
Q 384 513 384 1019 
Q 384 1609 779 1909 
Q 1175 2209 1959 2209 
L 2766 2209 
L 2766 2266 
Q 2766 2663 2505 2880 
Q 2244 3097 1772 3097 
Q 1472 3097 1187 3025 
Q 903 2953 641 2809 
L 641 3341 
Q 956 3463 1253 3523 
Q 1550 3584 1831 3584 
Q 2591 3584 2966 3190 
Q 3341 2797 3341 1997 
z
M 1844 4281 
L 1665 4453 
Q 1597 4516 1545 4545 
Q 1494 4575 1453 4575 
Q 1334 4575 1278 4461 
Q 1222 4347 1215 4091 
L 825 4091 
Q 831 4513 990 4742 
Q 1150 4972 1434 4972 
Q 1553 4972 1653 4928 
Q 1753 4884 1869 4781 
L 2047 4609 
Q 2115 4547 2167 4517 
Q 2219 4488 2259 4488 
Q 2378 4488 2434 4602 
Q 2490 4716 2497 4972 
L 2887 4972 
Q 2881 4550 2721 4320 
Q 2562 4091 2278 4091 
Q 2159 4091 2059 4134 
Q 1959 4178 1844 4281 
z
" transform="scale(0.015625)"/>
       <path id="DejaVuSans-52" d="M 2841 2188 
Q 3044 2119 3236 1894 
Q 3428 1669 3622 1275 
L 4263 0 
L 3584 0 
L 2988 1197 
Q 2756 1666 2539 1819 
Q 2322 1972 1947 1972 
L 1259 1972 
L 1259 0 
L 628 0 
L 628 4666 
L 2053 4666 
Q 2853 4666 3247 4331 
Q 3641 3997 3641 3322 
Q 3641 2881 3436 2590 
Q 3231 2300 2841 2188 
z
M 1259 4147 
L 1259 2491 
L 2053 2491 
Q 2509 2491 2742 2702 
Q 2975 2913 2975 3322 
Q 2975 3731 2742 3939 
Q 2509 4147 2053 4147 
L 1259 4147 
z
" transform="scale(0.015625)"/>
       <path id="DejaVuSans-67" d="M 2906 1791 
Q 2906 2416 2648 2759 
Q 2391 3103 1925 3103 
Q 1463 3103 1205 2759 
Q 947 2416 947 1791 
Q 947 1169 1205 825 
Q 1463 481 1925 481 
Q 2391 481 2648 825 
Q 2906 1169 2906 1791 
z
M 3481 434 
Q 3481 -459 3084 -895 
Q 2688 -1331 1869 -1331 
Q 1566 -1331 1297 -1286 
Q 1028 -1241 775 -1147 
L 775 -588 
Q 1028 -725 1275 -790 
Q 1522 -856 1778 -856 
Q 2344 -856 2625 -561 
Q 2906 -266 2906 331 
L 2906 616 
Q 2728 306 2450 153 
Q 2172 0 1784 0 
Q 1141 0 747 490 
Q 353 981 353 1791 
Q 353 2603 747 3093 
Q 1141 3584 1784 3584 
Q 2172 3584 2450 3431 
Q 2728 3278 2906 2969 
L 2906 3500 
L 3481 3500 
L 3481 434 
z
" transform="scale(0.015625)"/>
       <path id="DejaVuSans-73" d="M 2834 3397 
L 2834 2853 
Q 2591 2978 2328 3040 
Q 2066 3103 1784 3103 
Q 1356 3103 1142 2972 
Q 928 2841 928 2578 
Q 928 2378 1081 2264 
Q 1234 2150 1697 2047 
L 1894 2003 
Q 2506 1872 2764 1633 
Q 3022 1394 3022 966 
Q 3022 478 2636 193 
Q 2250 -91 1575 -91 
Q 1294 -91 989 -36 
Q 684 19 347 128 
L 347 722 
Q 666 556 975 473 
Q 1284 391 1588 391 
Q 1994 391 2212 530 
Q 2431 669 2431 922 
Q 2431 1156 2273 1281 
Q 2116 1406 1581 1522 
L 1381 1569 
Q 847 1681 609 1914 
Q 372 2147 372 2553 
Q 372 3047 722 3315 
Q 1072 3584 1716 3584 
Q 2034 3584 2315 3537 
Q 2597 3491 2834 3397 
z
" transform="scale(0.015625)"/>
       <path id="DejaVuSans-74" d="M 1172 4494 
L 1172 3500 
L 2356 3500 
L 2356 3053 
L 1172 3053 
L 1172 1153 
Q 1172 725 1289 603 
Q 1406 481 1766 481 
L 2356 481 
L 2356 0 
L 1766 0 
Q 1100 0 847 248 
Q 594 497 594 1153 
L 594 3053 
L 172 3053 
L 172 3500 
L 594 3500 
L 594 4494 
L 1172 4494 
z
" transform="scale(0.015625)"/>
      </defs>
      <use xlink:href="#DejaVuSans-54"/>
      <use xlink:href="#DejaVuSans-65" x="44.083984"/>
      <use xlink:href="#DejaVuSans-6d" x="105.607422"/>
      <use xlink:href="#DejaVuSans-70" x="203.019531"/>
      <use xlink:href="#DejaVuSans-6f" x="266.496094"/>
      <use xlink:href="#DejaVuSans-20" x="327.677734"/>
      <use xlink:href="#DejaVuSans-64" x="359.464844"/>
      <use xlink:href="#DejaVuSans-65" x="422.941406"/>
      <use xlink:href="#DejaVuSans-20" x="484.464844"/>
      <use xlink:href="#DejaVuSans-64" x="516.251953"/>
      <use xlink:href="#DejaVuSans-65" x="579.728516"/>
      <use xlink:href="#DejaVuSans-6c" x="641.251953"/>
      <use xlink:href="#DejaVuSans-65" x="669.035156"/>
      <use xlink:href="#DejaVuSans-e7" x="730.558594"/>
      <use xlink:href="#DejaVuSans-e3" x="785.539062"/>
      <use xlink:href="#DejaVuSans-6f" x="846.818359"/>
      <use xlink:href="#DejaVuSans-20" x="908"/>
      <use xlink:href="#DejaVuSans-64" x="939.787109"/>
      <use xlink:href="#DejaVuSans-65" x="1003.263672"/>
      <use xlink:href="#DejaVuSans-20" x="1064.787109"/>
      <use xlink:href="#DejaVuSans-52" x="1096.574219"/>
      <use xlink:href="#DejaVuSans-65" x="1161.556641"/>
      <use xlink:href="#DejaVuSans-67" x="1223.080078"/>
      <use xlink:href="#DejaVuSans-69" x="1286.556641"/>
      <use xlink:href="#DejaVuSans-73" x="1314.339844"/>
      <use xlink:href="#DejaVuSans-74" x="1366.439453"/>
      <use xlink:href="#DejaVuSans-72" x="1405.648438"/>
      <use xlink:href="#DejaVuSans-6f" x="1444.511719"/>
     </g>
    </g>
   </g>
   <g id="line2d_12">
    <path d="M 153.463235 116.697255 
L 153.463235 67.928836 
" clip-path="url(#p43588a4232)" style="fill: none; stroke: #424242; stroke-width: 2.7; stroke-linecap: square"/>
   </g>
   <g id="line2d_13">
    <path d="M 215.007353 155.737109 
L 215.007353 85.820193 
" clip-path="url(#p43588a4232)" style="fill: none; stroke: #424242; stroke-width: 2.7; stroke-linecap: square"/>
   </g>
   <g id="line2d_14">
    <path d="M 276.551471 184.684932 
L 276.551471 176.706458 
" clip-path="url(#p43588a4232)" style="fill: none; stroke: #424242; stroke-width: 2.7; stroke-linecap: square"/>
   </g>
   <g id="line2d_15">
    <path d="M 338.095588 104.900196 
L 338.095588 87.170254 
" clip-path="url(#p43588a4232)" style="fill: none; stroke: #424242; stroke-width: 2.7; stroke-linecap: square"/>
   </g>
   <g id="line2d_16">
    <path d="M 178.080882 114.651663 
L 178.080882 98.426551 
" clip-path="url(#p43588a4232)" style="fill: none; stroke: #424242; stroke-width: 2.7; stroke-linecap: square"/>
   </g>
   <g id="line2d_17">
    <path d="M 239.625 157.354966 
L 239.625 118.417429 
" clip-path="url(#p43588a4232)" style="fill: none; stroke: #424242; stroke-width: 2.7; stroke-linecap: square"/>
   </g>
   <g id="line2d_18">
    <path d="M 301.169118 189.117417 
L 301.169118 182.911937 
" clip-path="url(#p43588a4232)" style="fill: none; stroke: #424242; stroke-width: 2.7; stroke-linecap: square"/>
   </g>
   <g id="line2d_19">
    <path d="M 362.713235 92.489237 
L 362.713235 56.142857 
" clip-path="url(#p43588a4232)" style="fill: none; stroke: #424242; stroke-width: 2.7; stroke-linecap: square"/>
   </g>
   <g id="patch_11">
    <path d="M 135 315 
L 135 43.2 
" style="fill: none; stroke: #000000; stroke-width: 0.8; stroke-linejoin: miter; stroke-linecap: square"/>
   </g>
   <g id="patch_12">
    <path d="M 381.176471 315 
L 381.176471 43.2 
" style="fill: none; stroke: #000000; stroke-width: 0.8; stroke-linejoin: miter; stroke-linecap: square"/>
   </g>
   <g id="patch_13">
    <path d="M 135 315 
L 381.176471 315 
" style="fill: none; stroke: #000000; stroke-width: 0.8; stroke-linejoin: miter; stroke-linecap: square"/>
   </g>
   <g id="patch_14">
    <path d="M 135 43.2 
L 381.176471 43.2 
" style="fill: none; stroke: #000000; stroke-width: 0.8; stroke-linejoin: miter; stroke-linecap: square"/>
   </g>
   <g id="legend_1">
    <g id="patch_15">
     <path d="M 214.31011 95.634375 
L 301.86636 95.634375 
Q 303.86636 95.634375 303.86636 93.634375 
L 303.86636 50.2 
Q 303.86636 48.2 301.86636 48.2 
L 214.31011 48.2 
Q 212.31011 48.2 212.31011 50.2 
L 212.31011 93.634375 
Q 212.31011 95.634375 214.31011 95.634375 
z
" style="fill: #ffffff; opacity: 0.8; stroke: #cccccc; stroke-linejoin: miter"/>
    </g>
    <g id="text_14">
     <!-- Tipo de Memória -->
     <g transform="translate(216.31011 60.198437)scale(0.1 -0.1)">
      <defs>
       <path id="DejaVuSans-f3" d="M 1959 3097 
Q 1497 3097 1228 2736 
Q 959 2375 959 1747 
Q 959 1119 1226 758 
Q 1494 397 1959 397 
Q 2419 397 2687 759 
Q 2956 1122 2956 1747 
Q 2956 2369 2687 2733 
Q 2419 3097 1959 3097 
z
M 1959 3584 
Q 2709 3584 3137 3096 
Q 3566 2609 3566 1747 
Q 3566 888 3137 398 
Q 2709 -91 1959 -91 
Q 1206 -91 779 398 
Q 353 888 353 1747 
Q 353 2609 779 3096 
Q 1206 3584 1959 3584 
z
M 2394 5119 
L 3016 5119 
L 1998 3944 
L 1519 3944 
L 2394 5119 
z
" transform="scale(0.015625)"/>
      </defs>
      <use xlink:href="#DejaVuSans-54"/>
      <use xlink:href="#DejaVuSans-69" x="57.958984"/>
      <use xlink:href="#DejaVuSans-70" x="85.742188"/>
      <use xlink:href="#DejaVuSans-6f" x="149.21875"/>
      <use xlink:href="#DejaVuSans-20" x="210.400391"/>
      <use xlink:href="#DejaVuSans-64" x="242.1875"/>
      <use xlink:href="#DejaVuSans-65" x="305.664062"/>
      <use xlink:href="#DejaVuSans-20" x="367.1875"/>
      <use xlink:href="#DejaVuSans-4d" x="398.974609"/>
      <use xlink:href="#DejaVuSans-65" x="485.253906"/>
      <use xlink:href="#DejaVuSans-6d" x="546.777344"/>
      <use xlink:href="#DejaVuSans-f3" x="644.189453"/>
      <use xlink:href="#DejaVuSans-72" x="705.371094"/>
      <use xlink:href="#DejaVuSans-69" x="746.484375"/>
      <use xlink:href="#DejaVuSans-61" x="774.267578"/>
     </g>
    </g>
    <g id="patch_16">
     <path d="M 231.039017 74.876562 
L 251.039017 74.876562 
L 251.039017 67.876562 
L 231.039017 67.876562 
z
" style="fill: #3274a1"/>
    </g>
    <g id="text_15">
     <!--  HDD -->
     <g transform="translate(259.039017 74.876562)scale(0.1 -0.1)">
      <defs>
       <path id="DejaVuSans-48" d="M 628 4666 
L 1259 4666 
L 1259 2753 
L 3553 2753 
L 3553 4666 
L 4184 4666 
L 4184 0 
L 3553 0 
L 3553 2222 
L 1259 2222 
L 1259 0 
L 628 0 
L 628 4666 
z
" transform="scale(0.015625)"/>
       <path id="DejaVuSans-44" d="M 1259 4147 
L 1259 519 
L 2022 519 
Q 2988 519 3436 956 
Q 3884 1394 3884 2338 
Q 3884 3275 3436 3711 
Q 2988 4147 2022 4147 
L 1259 4147 
z
M 628 4666 
L 1925 4666 
Q 3281 4666 3915 4102 
Q 4550 3538 4550 2338 
Q 4550 1131 3912 565 
Q 3275 0 1925 0 
L 628 0 
L 628 4666 
z
" transform="scale(0.015625)"/>
      </defs>
      <use xlink:href="#DejaVuSans-20"/>
      <use xlink:href="#DejaVuSans-48" x="31.787109"/>
      <use xlink:href="#DejaVuSans-44" x="106.982422"/>
      <use xlink:href="#DejaVuSans-44" x="183.984375"/>
     </g>
    </g>
    <g id="patch_17">
     <path d="M 231.039017 89.554688 
L 251.039017 89.554688 
L 251.039017 82.554688 
L 231.039017 82.554688 
z
" style="fill: #e1812c"/>
    </g>
    <g id="text_16">
     <!--  SSD -->
     <g transform="translate(259.039017 89.554688)scale(0.1 -0.1)">
      <defs>
       <path id="DejaVuSans-53" d="M 3425 4513 
L 3425 3897 
Q 3066 4069 2747 4153 
Q 2428 4238 2131 4238 
Q 1616 4238 1336 4038 
Q 1056 3838 1056 3469 
Q 1056 3159 1242 3001 
Q 1428 2844 1947 2747 
L 2328 2669 
Q 3034 2534 3370 2195 
Q 3706 1856 3706 1288 
Q 3706 609 3251 259 
Q 2797 -91 1919 -91 
Q 1588 -91 1214 -16 
Q 841 59 441 206 
L 441 856 
Q 825 641 1194 531 
Q 1563 422 1919 422 
Q 2459 422 2753 634 
Q 3047 847 3047 1241 
Q 3047 1584 2836 1778 
Q 2625 1972 2144 2069 
L 1759 2144 
Q 1053 2284 737 2584 
Q 422 2884 422 3419 
Q 422 4038 858 4394 
Q 1294 4750 2059 4750 
Q 2388 4750 2728 4690 
Q 3069 4631 3425 4513 
z
" transform="scale(0.015625)"/>
      </defs>
      <use xlink:href="#DejaVuSans-20"/>
      <use xlink:href="#DejaVuSans-53" x="31.787109"/>
      <use xlink:href="#DejaVuSans-53" x="95.263672"/>
      <use xlink:href="#DejaVuSans-44" x="158.740234"/>
     </g>
    </g>
   </g>
  </g>
  <g id="axes_2">
   <g id="patch_18">
    <path d="M 430.411765 315 
L 676.588235 315 
L 676.588235 43.2 
L 430.411765 43.2 
z
" style="fill: #ffffff"/>
   </g>
   <g id="patch_19">
    <path d="M 442.720588 315 
L 491.955882 315 
L 491.955882 119.24533 
L 442.720588 119.24533 
z
" clip-path="url(#pce22d5bed8)" style="fill: #3274a1"/>
   </g>
   <g id="patch_20">
    <path d="M 565.808824 315 
L 615.044118 315 
L 615.044118 106.49589 
L 565.808824 106.49589 
z
" clip-path="url(#pce22d5bed8)" style="fill: #3274a1"/>
   </g>
   <g id="patch_21">
    <path d="M 491.955882 315 
L 541.191176 315 
L 541.191176 123.758406 
L 491.955882 123.758406 
z
" clip-path="url(#pce22d5bed8)" style="fill: #e1812c"/>
   </g>
   <g id="patch_22">
    <path d="M 615.044118 315 
L 664.279412 315 
L 664.279412 125.880626 
L 615.044118 125.880626 
z
" clip-path="url(#pce22d5bed8)" style="fill: #e1812c"/>
   </g>
   <g id="matplotlib.axis_3">
    <g id="xtick_5">
     <g id="line2d_20">
      <g>
       <use xlink:href="#m75f4fccc8d" x="491.955882" y="315" style="stroke: #000000; stroke-width: 0.8"/>
      </g>
     </g>
     <g id="text_17">
      <!-- 2 -->
      <g transform="translate(488.774632 329.598437)scale(0.1 -0.1)">
       <use xlink:href="#DejaVuSans-32"/>
      </g>
     </g>
    </g>
    <g id="xtick_6">
     <g id="line2d_21">
      <g>
       <use xlink:href="#m75f4fccc8d" x="615.044118" y="315" style="stroke: #000000; stroke-width: 0.8"/>
      </g>
     </g>
     <g id="text_18">
      <!-- 8 -->
      <g transform="translate(611.862868 329.598437)scale(0.1 -0.1)">
       <defs>
        <path id="DejaVuSans-38" d="M 2034 2216 
Q 1584 2216 1326 1975 
Q 1069 1734 1069 1313 
Q 1069 891 1326 650 
Q 1584 409 2034 409 
Q 2484 409 2743 651 
Q 3003 894 3003 1313 
Q 3003 1734 2745 1975 
Q 2488 2216 2034 2216 
z
M 1403 2484 
Q 997 2584 770 2862 
Q 544 3141 544 3541 
Q 544 4100 942 4425 
Q 1341 4750 2034 4750 
Q 2731 4750 3128 4425 
Q 3525 4100 3525 3541 
Q 3525 3141 3298 2862 
Q 3072 2584 2669 2484 
Q 3125 2378 3379 2068 
Q 3634 1759 3634 1313 
Q 3634 634 3220 271 
Q 2806 -91 2034 -91 
Q 1263 -91 848 271 
Q 434 634 434 1313 
Q 434 1759 690 2068 
Q 947 2378 1403 2484 
z
M 1172 3481 
Q 1172 3119 1398 2916 
Q 1625 2713 2034 2713 
Q 2441 2713 2670 2916 
Q 2900 3119 2900 3481 
Q 2900 3844 2670 4047 
Q 2441 4250 2034 4250 
Q 1625 4250 1398 4047 
Q 1172 3844 1172 3481 
z
" transform="scale(0.015625)"/>
       </defs>
       <use xlink:href="#DejaVuSans-38"/>
      </g>
     </g>
    </g>
    <g id="text_19">
     <!-- Profundidade Inicial do Diretório -->
     <g transform="translate(473.013281 343.276563)scale(0.1 -0.1)">
      <defs>
       <path id="DejaVuSans-50" d="M 1259 4147 
L 1259 2394 
L 2053 2394 
Q 2494 2394 2734 2622 
Q 2975 2850 2975 3272 
Q 2975 3691 2734 3919 
Q 2494 4147 2053 4147 
L 1259 4147 
z
M 628 4666 
L 2053 4666 
Q 2838 4666 3239 4311 
Q 3641 3956 3641 3272 
Q 3641 2581 3239 2228 
Q 2838 1875 2053 1875 
L 1259 1875 
L 1259 0 
L 628 0 
L 628 4666 
z
" transform="scale(0.015625)"/>
       <path id="DejaVuSans-66" d="M 2375 4863 
L 2375 4384 
L 1825 4384 
Q 1516 4384 1395 4259 
Q 1275 4134 1275 3809 
L 1275 3500 
L 2222 3500 
L 2222 3053 
L 1275 3053 
L 1275 0 
L 697 0 
L 697 3053 
L 147 3053 
L 147 3500 
L 697 3500 
L 697 3744 
Q 697 4328 969 4595 
Q 1241 4863 1831 4863 
L 2375 4863 
z
" transform="scale(0.015625)"/>
       <path id="DejaVuSans-49" d="M 628 4666 
L 1259 4666 
L 1259 0 
L 628 0 
L 628 4666 
z
" transform="scale(0.015625)"/>
       <path id="DejaVuSans-63" d="M 3122 3366 
L 3122 2828 
Q 2878 2963 2633 3030 
Q 2388 3097 2138 3097 
Q 1578 3097 1268 2742 
Q 959 2388 959 1747 
Q 959 1106 1268 751 
Q 1578 397 2138 397 
Q 2388 397 2633 464 
Q 2878 531 3122 666 
L 3122 134 
Q 2881 22 2623 -34 
Q 2366 -91 2075 -91 
Q 1284 -91 818 406 
Q 353 903 353 1747 
Q 353 2603 823 3093 
Q 1294 3584 2113 3584 
Q 2378 3584 2631 3529 
Q 2884 3475 3122 3366 
z
" transform="scale(0.015625)"/>
      </defs>
      <use xlink:href="#DejaVuSans-50"/>
      <use xlink:href="#DejaVuSans-72" x="58.552734"/>
      <use xlink:href="#DejaVuSans-6f" x="97.416016"/>
      <use xlink:href="#DejaVuSans-66" x="158.597656"/>
      <use xlink:href="#DejaVuSans-75" x="193.802734"/>
      <use xlink:href="#DejaVuSans-6e" x="257.181641"/>
      <use xlink:href="#DejaVuSans-64" x="320.560547"/>
      <use xlink:href="#DejaVuSans-69" x="384.037109"/>
      <use xlink:href="#DejaVuSans-64" x="411.820312"/>
      <use xlink:href="#DejaVuSans-61" x="475.296875"/>
      <use xlink:href="#DejaVuSans-64" x="536.576172"/>
      <use xlink:href="#DejaVuSans-65" x="600.052734"/>
      <use xlink:href="#DejaVuSans-20" x="661.576172"/>
      <use xlink:href="#DejaVuSans-49" x="693.363281"/>
      <use xlink:href="#DejaVuSans-6e" x="722.855469"/>
      <use xlink:href="#DejaVuSans-69" x="786.234375"/>
      <use xlink:href="#DejaVuSans-63" x="814.017578"/>
      <use xlink:href="#DejaVuSans-69" x="868.998047"/>
      <use xlink:href="#DejaVuSans-61" x="896.78125"/>
      <use xlink:href="#DejaVuSans-6c" x="958.060547"/>
      <use xlink:href="#DejaVuSans-20" x="985.84375"/>
      <use xlink:href="#DejaVuSans-64" x="1017.630859"/>
      <use xlink:href="#DejaVuSans-6f" x="1081.107422"/>
      <use xlink:href="#DejaVuSans-20" x="1142.289062"/>
      <use xlink:href="#DejaVuSans-44" x="1174.076172"/>
      <use xlink:href="#DejaVuSans-69" x="1251.078125"/>
      <use xlink:href="#DejaVuSans-72" x="1278.861328"/>
      <use xlink:href="#DejaVuSans-65" x="1317.724609"/>
      <use xlink:href="#DejaVuSans-74" x="1379.248047"/>
      <use xlink:href="#DejaVuSans-f3" x="1418.457031"/>
      <use xlink:href="#DejaVuSans-72" x="1479.638672"/>
      <use xlink:href="#DejaVuSans-69" x="1520.751953"/>
      <use xlink:href="#DejaVuSans-6f" x="1548.535156"/>
     </g>
    </g>
   </g>
   <g id="matplotlib.axis_4">
    <g id="ytick_8">
     <g id="line2d_22">
      <g>
       <use xlink:href="#m0cda7be15a" x="430.411765" y="315" style="stroke: #000000; stroke-width: 0.8"/>
      </g>
     </g>
    </g>
    <g id="ytick_9">
     <g id="line2d_23">
      <g>
       <use xlink:href="#m0cda7be15a" x="430.411765" y="270.675147" style="stroke: #000000; stroke-width: 0.8"/>
      </g>
     </g>
    </g>
    <g id="ytick_10">
     <g id="line2d_24">
      <g>
       <use xlink:href="#m0cda7be15a" x="430.411765" y="226.350294" style="stroke: #000000; stroke-width: 0.8"/>
      </g>
     </g>
    </g>
    <g id="ytick_11">
     <g id="line2d_25">
      <g>
       <use xlink:href="#m0cda7be15a" x="430.411765" y="182.02544" style="stroke: #000000; stroke-width: 0.8"/>
      </g>
     </g>
    </g>
    <g id="ytick_12">
     <g id="line2d_26">
      <g>
       <use xlink:href="#m0cda7be15a" x="430.411765" y="137.700587" style="stroke: #000000; stroke-width: 0.8"/>
      </g>
     </g>
    </g>
    <g id="ytick_13">
     <g id="line2d_27">
      <g>
       <use xlink:href="#m0cda7be15a" x="430.411765" y="93.375734" style="stroke: #000000; stroke-width: 0.8"/>
      </g>
     </g>
    </g>
    <g id="ytick_14">
     <g id="line2d_28">
      <g>
       <use xlink:href="#m0cda7be15a" x="430.411765" y="49.050881" style="stroke: #000000; stroke-width: 0.8"/>
      </g>
     </g>
    </g>
    <g id="text_20">
     <!-- Tempo de deleção de Registro -->
     <g transform="translate(424.332077 254.3875)rotate(-90)scale(0.1 -0.1)">
      <use xlink:href="#DejaVuSans-54"/>
      <use xlink:href="#DejaVuSans-65" x="44.083984"/>
      <use xlink:href="#DejaVuSans-6d" x="105.607422"/>
      <use xlink:href="#DejaVuSans-70" x="203.019531"/>
      <use xlink:href="#DejaVuSans-6f" x="266.496094"/>
      <use xlink:href="#DejaVuSans-20" x="327.677734"/>
      <use xlink:href="#DejaVuSans-64" x="359.464844"/>
      <use xlink:href="#DejaVuSans-65" x="422.941406"/>
      <use xlink:href="#DejaVuSans-20" x="484.464844"/>
      <use xlink:href="#DejaVuSans-64" x="516.251953"/>
      <use xlink:href="#DejaVuSans-65" x="579.728516"/>
      <use xlink:href="#DejaVuSans-6c" x="641.251953"/>
      <use xlink:href="#DejaVuSans-65" x="669.035156"/>
      <use xlink:href="#DejaVuSans-e7" x="730.558594"/>
      <use xlink:href="#DejaVuSans-e3" x="785.539062"/>
      <use xlink:href="#DejaVuSans-6f" x="846.818359"/>
      <use xlink:href="#DejaVuSans-20" x="908"/>
      <use xlink:href="#DejaVuSans-64" x="939.787109"/>
      <use xlink:href="#DejaVuSans-65" x="1003.263672"/>
      <use xlink:href="#DejaVuSans-20" x="1064.787109"/>
      <use xlink:href="#DejaVuSans-52" x="1096.574219"/>
      <use xlink:href="#DejaVuSans-65" x="1161.556641"/>
      <use xlink:href="#DejaVuSans-67" x="1223.080078"/>
      <use xlink:href="#DejaVuSans-69" x="1286.556641"/>
      <use xlink:href="#DejaVuSans-73" x="1314.339844"/>
      <use xlink:href="#DejaVuSans-74" x="1366.439453"/>
      <use xlink:href="#DejaVuSans-72" x="1405.648438"/>
      <use xlink:href="#DejaVuSans-6f" x="1444.511719"/>
     </g>
    </g>
   </g>
   <g id="line2d_29">
    <path d="M 467.338235 148.757623 
L 467.338235 88.540295 
" clip-path="url(#pce22d5bed8)" style="fill: none; stroke: #424242; stroke-width: 2.7; stroke-linecap: square"/>
   </g>
   <g id="line2d_30">
    <path d="M 590.426471 135.101673 
L 590.426471 78.83275 
" clip-path="url(#pce22d5bed8)" style="fill: none; stroke: #424242; stroke-width: 2.7; stroke-linecap: square"/>
   </g>
   <g id="line2d_31">
    <path d="M 516.573529 140.124351 
L 516.573529 108.121807 
" clip-path="url(#pce22d5bed8)" style="fill: none; stroke: #424242; stroke-width: 2.7; stroke-linecap: square"/>
   </g>
   <g id="line2d_32">
    <path d="M 639.661765 146.392691 
L 639.661765 104.779041 
" clip-path="url(#pce22d5bed8)" style="fill: none; stroke: #424242; stroke-width: 2.7; stroke-linecap: square"/>
   </g>
   <g id="patch_23">
    <path d="M 430.411765 315 
L 430.411765 43.2 
" style="fill: none; stroke: #000000; stroke-width: 0.8; stroke-linejoin: miter; stroke-linecap: square"/>
   </g>
   <g id="patch_24">
    <path d="M 676.588235 315 
L 676.588235 43.2 
" style="fill: none; stroke: #000000; stroke-width: 0.8; stroke-linejoin: miter; stroke-linecap: square"/>
   </g>
   <g id="patch_25">
    <path d="M 430.411765 315 
L 676.588235 315 
" style="fill: none; stroke: #000000; stroke-width: 0.8; stroke-linejoin: miter; stroke-linecap: square"/>
   </g>
   <g id="patch_26">
    <path d="M 430.411765 43.2 
L 676.588235 43.2 
" style="fill: none; stroke: #000000; stroke-width: 0.8; stroke-linejoin: miter; stroke-linecap: square"/>
   </g>
   <g id="legend_2">
    <g id="patch_27">
     <path d="M 582.031985 95.634375 
L 669.588235 95.634375 
Q 671.588235 95.634375 671.588235 93.634375 
L 671.588235 50.2 
Q 671.588235 48.2 669.588235 48.2 
L 582.031985 48.2 
Q 580.031985 48.2 580.031985 50.2 
L 580.031985 93.634375 
Q 580.031985 95.634375 582.031985 95.634375 
z
" style="fill: #ffffff; opacity: 0.8; stroke: #cccccc; stroke-linejoin: miter"/>
    </g>
    <g id="text_21">
     <!-- Tipo de Memória -->
     <g transform="translate(584.031985 60.198437)scale(0.1 -0.1)">
      <use xlink:href="#DejaVuSans-54"/>
      <use xlink:href="#DejaVuSans-69" x="57.958984"/>
      <use xlink:href="#DejaVuSans-70" x="85.742188"/>
      <use xlink:href="#DejaVuSans-6f" x="149.21875"/>
      <use xlink:href="#DejaVuSans-20" x="210.400391"/>
      <use xlink:href="#DejaVuSans-64" x="242.1875"/>
      <use xlink:href="#DejaVuSans-65" x="305.664062"/>
      <use xlink:href="#DejaVuSans-20" x="367.1875"/>
      <use xlink:href="#DejaVuSans-4d" x="398.974609"/>
      <use xlink:href="#DejaVuSans-65" x="485.253906"/>
      <use xlink:href="#DejaVuSans-6d" x="546.777344"/>
      <use xlink:href="#DejaVuSans-f3" x="644.189453"/>
      <use xlink:href="#DejaVuSans-72" x="705.371094"/>
      <use xlink:href="#DejaVuSans-69" x="746.484375"/>
      <use xlink:href="#DejaVuSans-61" x="774.267578"/>
     </g>
    </g>
    <g id="patch_28">
     <path d="M 598.760892 74.876562 
L 618.760892 74.876562 
L 618.760892 67.876562 
L 598.760892 67.876562 
z
" style="fill: #3274a1"/>
    </g>
    <g id="text_22">
     <!--  HDD -->
     <g transform="translate(626.760892 74.876562)scale(0.1 -0.1)">
      <use xlink:href="#DejaVuSans-20"/>
      <use xlink:href="#DejaVuSans-48" x="31.787109"/>
      <use xlink:href="#DejaVuSans-44" x="106.982422"/>
      <use xlink:href="#DejaVuSans-44" x="183.984375"/>
     </g>
    </g>
    <g id="patch_29">
     <path d="M 598.760892 89.554688 
L 618.760892 89.554688 
L 618.760892 82.554688 
L 598.760892 82.554688 
z
" style="fill: #e1812c"/>
    </g>
    <g id="text_23">
     <!--  SSD -->
     <g transform="translate(626.760892 89.554688)scale(0.1 -0.1)">
      <use xlink:href="#DejaVuSans-20"/>
      <use xlink:href="#DejaVuSans-53" x="31.787109"/>
      <use xlink:href="#DejaVuSans-53" x="95.263672"/>
      <use xlink:href="#DejaVuSans-44" x="158.740234"/>
     </g>
    </g>
   </g>
  </g>
  <g id="axes_3">
   <g id="patch_30">
    <path d="M 725.823529 315 
L 972 315 
L 972 43.2 
L 725.823529 43.2 
z
" style="fill: #ffffff"/>
   </g>
   <g id="patch_31">
    <path d="M 734.029412 315 
L 766.852941 315 
L 766.852941 99.359589 
L 734.029412 99.359589 
z
" clip-path="url(#p7d2c322c77)" style="fill: #3274a1"/>
   </g>
   <g id="patch_32">
    <path d="M 816.088235 315 
L 848.911765 315 
L 848.911765 139.030333 
L 816.088235 139.030333 
z
" clip-path="url(#p7d2c322c77)" style="fill: #3274a1"/>
   </g>
   <g id="patch_33">
    <path d="M 898.147059 315 
L 930.970588 315 
L 930.970588 127.210372 
L 898.147059 127.210372 
z
" clip-path="url(#p7d2c322c77)" style="fill: #3274a1"/>
   </g>
   <g id="patch_34">
    <path d="M 766.852941 315 
L 799.676471 315 
L 799.676471 115.870597 
L 766.852941 115.870597 
z
" clip-path="url(#p7d2c322c77)" style="fill: #e1812c"/>
   </g>
   <g id="patch_35">
    <path d="M 848.911765 315 
L 881.735294 315 
L 881.735294 143.684442 
L 848.911765 143.684442 
z
" clip-path="url(#p7d2c322c77)" style="fill: #e1812c"/>
   </g>
   <g id="patch_36">
    <path d="M 930.970588 315 
L 963.794118 315 
L 963.794118 136.81409 
L 930.970588 136.81409 
z
" clip-path="url(#p7d2c322c77)" style="fill: #e1812c"/>
   </g>
   <g id="matplotlib.axis_5">
    <g id="xtick_7">
     <g id="line2d_33">
      <g>
       <use xlink:href="#m75f4fccc8d" x="766.852941" y="315" style="stroke: #000000; stroke-width: 0.8"/>
      </g>
     </g>
     <g id="text_24">
      <!-- 62 -->
      <g transform="translate(760.490441 329.598437)scale(0.1 -0.1)">
       <defs>
        <path id="DejaVuSans-36" d="M 2113 2584 
Q 1688 2584 1439 2293 
Q 1191 2003 1191 1497 
Q 1191 994 1439 701 
Q 1688 409 2113 409 
Q 2538 409 2786 701 
Q 3034 994 3034 1497 
Q 3034 2003 2786 2293 
Q 2538 2584 2113 2584 
z
M 3366 4563 
L 3366 3988 
Q 3128 4100 2886 4159 
Q 2644 4219 2406 4219 
Q 1781 4219 1451 3797 
Q 1122 3375 1075 2522 
Q 1259 2794 1537 2939 
Q 1816 3084 2150 3084 
Q 2853 3084 3261 2657 
Q 3669 2231 3669 1497 
Q 3669 778 3244 343 
Q 2819 -91 2113 -91 
Q 1303 -91 875 529 
Q 447 1150 447 2328 
Q 447 3434 972 4092 
Q 1497 4750 2381 4750 
Q 2619 4750 2861 4703 
Q 3103 4656 3366 4563 
z
" transform="scale(0.015625)"/>
       </defs>
       <use xlink:href="#DejaVuSans-36"/>
       <use xlink:href="#DejaVuSans-32" x="63.623047"/>
      </g>
     </g>
    </g>
    <g id="xtick_8">
     <g id="line2d_34">
      <g>
       <use xlink:href="#m75f4fccc8d" x="848.911765" y="315" style="stroke: #000000; stroke-width: 0.8"/>
      </g>
     </g>
     <g id="text_25">
      <!-- 126 -->
      <g transform="translate(839.368015 329.598437)scale(0.1 -0.1)">
       <use xlink:href="#DejaVuSans-31"/>
       <use xlink:href="#DejaVuSans-32" x="63.623047"/>
       <use xlink:href="#DejaVuSans-36" x="127.246094"/>
      </g>
     </g>
    </g>
    <g id="xtick_9">
     <g id="line2d_35">
      <g>
       <use xlink:href="#m75f4fccc8d" x="930.970588" y="315" style="stroke: #000000; stroke-width: 0.8"/>
      </g>
     </g>
     <g id="text_26">
      <!-- 510 -->
      <g transform="translate(921.426838 329.598437)scale(0.1 -0.1)">
       <use xlink:href="#DejaVuSans-35"/>
       <use xlink:href="#DejaVuSans-31" x="63.623047"/>
       <use xlink:href="#DejaVuSans-30" x="127.246094"/>
      </g>
     </g>
    </g>
    <g id="text_27">
     <!-- Tamanho dos Buckets -->
     <g transform="translate(794.567233 343.276563)scale(0.1 -0.1)">
      <defs>
       <path id="DejaVuSans-6b" d="M 581 4863 
L 1159 4863 
L 1159 1991 
L 2875 3500 
L 3609 3500 
L 1753 1863 
L 3688 0 
L 2938 0 
L 1159 1709 
L 1159 0 
L 581 0 
L 581 4863 
z
" transform="scale(0.015625)"/>
      </defs>
      <use xlink:href="#DejaVuSans-54"/>
      <use xlink:href="#DejaVuSans-61" x="44.583984"/>
      <use xlink:href="#DejaVuSans-6d" x="105.863281"/>
      <use xlink:href="#DejaVuSans-61" x="203.275391"/>
      <use xlink:href="#DejaVuSans-6e" x="264.554688"/>
      <use xlink:href="#DejaVuSans-68" x="327.933594"/>
      <use xlink:href="#DejaVuSans-6f" x="391.3125"/>
      <use xlink:href="#DejaVuSans-20" x="452.494141"/>
      <use xlink:href="#DejaVuSans-64" x="484.28125"/>
      <use xlink:href="#DejaVuSans-6f" x="547.757812"/>
      <use xlink:href="#DejaVuSans-73" x="608.939453"/>
      <use xlink:href="#DejaVuSans-20" x="661.039062"/>
      <use xlink:href="#DejaVuSans-42" x="692.826172"/>
      <use xlink:href="#DejaVuSans-75" x="761.429688"/>
      <use xlink:href="#DejaVuSans-63" x="824.808594"/>
      <use xlink:href="#DejaVuSans-6b" x="879.789062"/>
      <use xlink:href="#DejaVuSans-65" x="934.074219"/>
      <use xlink:href="#DejaVuSans-74" x="995.597656"/>
      <use xlink:href="#DejaVuSans-73" x="1034.806641"/>
     </g>
    </g>
   </g>
   <g id="matplotlib.axis_6">
    <g id="ytick_15">
     <g id="line2d_36">
      <g>
       <use xlink:href="#m0cda7be15a" x="725.823529" y="315" style="stroke: #000000; stroke-width: 0.8"/>
      </g>
     </g>
    </g>
    <g id="ytick_16">
     <g id="line2d_37">
      <g>
       <use xlink:href="#m0cda7be15a" x="725.823529" y="270.675147" style="stroke: #000000; stroke-width: 0.8"/>
      </g>
     </g>
    </g>
    <g id="ytick_17">
     <g id="line2d_38">
      <g>
       <use xlink:href="#m0cda7be15a" x="725.823529" y="226.350294" style="stroke: #000000; stroke-width: 0.8"/>
      </g>
     </g>
    </g>
    <g id="ytick_18">
     <g id="line2d_39">
      <g>
       <use xlink:href="#m0cda7be15a" x="725.823529" y="182.02544" style="stroke: #000000; stroke-width: 0.8"/>
      </g>
     </g>
    </g>
    <g id="ytick_19">
     <g id="line2d_40">
      <g>
       <use xlink:href="#m0cda7be15a" x="725.823529" y="137.700587" style="stroke: #000000; stroke-width: 0.8"/>
      </g>
     </g>
    </g>
    <g id="ytick_20">
     <g id="line2d_41">
      <g>
       <use xlink:href="#m0cda7be15a" x="725.823529" y="93.375734" style="stroke: #000000; stroke-width: 0.8"/>
      </g>
     </g>
    </g>
    <g id="ytick_21">
     <g id="line2d_42">
      <g>
       <use xlink:href="#m0cda7be15a" x="725.823529" y="49.050881" style="stroke: #000000; stroke-width: 0.8"/>
      </g>
     </g>
    </g>
    <g id="text_28">
     <!-- Tempo de deleção de Registro -->
     <g transform="translate(719.743842 254.3875)rotate(-90)scale(0.1 -0.1)">
      <use xlink:href="#DejaVuSans-54"/>
      <use xlink:href="#DejaVuSans-65" x="44.083984"/>
      <use xlink:href="#DejaVuSans-6d" x="105.607422"/>
      <use xlink:href="#DejaVuSans-70" x="203.019531"/>
      <use xlink:href="#DejaVuSans-6f" x="266.496094"/>
      <use xlink:href="#DejaVuSans-20" x="327.677734"/>
      <use xlink:href="#DejaVuSans-64" x="359.464844"/>
      <use xlink:href="#DejaVuSans-65" x="422.941406"/>
      <use xlink:href="#DejaVuSans-20" x="484.464844"/>
      <use xlink:href="#DejaVuSans-64" x="516.251953"/>
      <use xlink:href="#DejaVuSans-65" x="579.728516"/>
      <use xlink:href="#DejaVuSans-6c" x="641.251953"/>
      <use xlink:href="#DejaVuSans-65" x="669.035156"/>
      <use xlink:href="#DejaVuSans-e7" x="730.558594"/>
      <use xlink:href="#DejaVuSans-e3" x="785.539062"/>
      <use xlink:href="#DejaVuSans-6f" x="846.818359"/>
      <use xlink:href="#DejaVuSans-20" x="908"/>
      <use xlink:href="#DejaVuSans-64" x="939.787109"/>
      <use xlink:href="#DejaVuSans-65" x="1003.263672"/>
      <use xlink:href="#DejaVuSans-20" x="1064.787109"/>
      <use xlink:href="#DejaVuSans-52" x="1096.574219"/>
      <use xlink:href="#DejaVuSans-65" x="1161.556641"/>
      <use xlink:href="#DejaVuSans-67" x="1223.080078"/>
      <use xlink:href="#DejaVuSans-69" x="1286.556641"/>
      <use xlink:href="#DejaVuSans-73" x="1314.339844"/>
      <use xlink:href="#DejaVuSans-74" x="1366.439453"/>
      <use xlink:href="#DejaVuSans-72" x="1405.648438"/>
      <use xlink:href="#DejaVuSans-6f" x="1444.511719"/>
     </g>
    </g>
   </g>
   <g id="line2d_43">
    <path d="M 750.441176 124.797899 
L 750.441176 73.369988 
" clip-path="url(#p7d2c322c77)" style="fill: none; stroke: #424242; stroke-width: 2.7; stroke-linecap: square"/>
   </g>
   <g id="line2d_44">
    <path d="M 832.5 182.911937 
L 832.5 95.148728 
" clip-path="url(#p7d2c322c77)" style="fill: none; stroke: #424242; stroke-width: 2.7; stroke-linecap: square"/>
   </g>
   <g id="line2d_45">
    <path d="M 914.558824 168.436179 
L 914.558824 79.48728 
" clip-path="url(#p7d2c322c77)" style="fill: none; stroke: #424242; stroke-width: 2.7; stroke-linecap: square"/>
   </g>
   <g id="line2d_46">
    <path d="M 783.264706 133.38861 
L 783.264706 100.854168 
" clip-path="url(#p7d2c322c77)" style="fill: none; stroke: #424242; stroke-width: 2.7; stroke-linecap: square"/>
   </g>
   <g id="line2d_47">
    <path d="M 865.323529 167.398239 
L 865.323529 119.970646 
" clip-path="url(#p7d2c322c77)" style="fill: none; stroke: #424242; stroke-width: 2.7; stroke-linecap: square"/>
   </g>
   <g id="line2d_48">
    <path d="M 947.382353 168.284736 
L 947.382353 105.927055 
" clip-path="url(#p7d2c322c77)" style="fill: none; stroke: #424242; stroke-width: 2.7; stroke-linecap: square"/>
   </g>
   <g id="patch_37">
    <path d="M 725.823529 315 
L 725.823529 43.2 
" style="fill: none; stroke: #000000; stroke-width: 0.8; stroke-linejoin: miter; stroke-linecap: square"/>
   </g>
   <g id="patch_38">
    <path d="M 972 315 
L 972 43.2 
" style="fill: none; stroke: #000000; stroke-width: 0.8; stroke-linejoin: miter; stroke-linecap: square"/>
   </g>
   <g id="patch_39">
    <path d="M 725.823529 315 
L 972 315 
" style="fill: none; stroke: #000000; stroke-width: 0.8; stroke-linejoin: miter; stroke-linecap: square"/>
   </g>
   <g id="patch_40">
    <path d="M 725.823529 43.2 
L 972 43.2 
" style="fill: none; stroke: #000000; stroke-width: 0.8; stroke-linejoin: miter; stroke-linecap: square"/>
   </g>
   <g id="legend_3">
    <g id="patch_41">
     <path d="M 877.44375 95.634375 
L 965 95.634375 
Q 967 95.634375 967 93.634375 
L 967 50.2 
Q 967 48.2 965 48.2 
L 877.44375 48.2 
Q 875.44375 48.2 875.44375 50.2 
L 875.44375 93.634375 
Q 875.44375 95.634375 877.44375 95.634375 
z
" style="fill: #ffffff; opacity: 0.8; stroke: #cccccc; stroke-linejoin: miter"/>
    </g>
    <g id="text_29">
     <!-- Tipo de Memória -->
     <g transform="translate(879.44375 60.198437)scale(0.1 -0.1)">
      <use xlink:href="#DejaVuSans-54"/>
      <use xlink:href="#DejaVuSans-69" x="57.958984"/>
      <use xlink:href="#DejaVuSans-70" x="85.742188"/>
      <use xlink:href="#DejaVuSans-6f" x="149.21875"/>
      <use xlink:href="#DejaVuSans-20" x="210.400391"/>
      <use xlink:href="#DejaVuSans-64" x="242.1875"/>
      <use xlink:href="#DejaVuSans-65" x="305.664062"/>
      <use xlink:href="#DejaVuSans-20" x="367.1875"/>
      <use xlink:href="#DejaVuSans-4d" x="398.974609"/>
      <use xlink:href="#DejaVuSans-65" x="485.253906"/>
      <use xlink:href="#DejaVuSans-6d" x="546.777344"/>
      <use xlink:href="#DejaVuSans-f3" x="644.189453"/>
      <use xlink:href="#DejaVuSans-72" x="705.371094"/>
      <use xlink:href="#DejaVuSans-69" x="746.484375"/>
      <use xlink:href="#DejaVuSans-61" x="774.267578"/>
     </g>
    </g>
    <g id="patch_42">
     <path d="M 894.172656 74.876562 
L 914.172656 74.876562 
L 914.172656 67.876562 
L 894.172656 67.876562 
z
" style="fill: #3274a1"/>
    </g>
    <g id="text_30">
     <!--  HDD -->
     <g transform="translate(922.172656 74.876562)scale(0.1 -0.1)">
      <use xlink:href="#DejaVuSans-20"/>
      <use xlink:href="#DejaVuSans-48" x="31.787109"/>
      <use xlink:href="#DejaVuSans-44" x="106.982422"/>
      <use xlink:href="#DejaVuSans-44" x="183.984375"/>
     </g>
    </g>
    <g id="patch_43">
     <path d="M 894.172656 89.554688 
L 914.172656 89.554688 
L 914.172656 82.554688 
L 894.172656 82.554688 
z
" style="fill: #e1812c"/>
    </g>
    <g id="text_31">
     <!--  SSD -->
     <g transform="translate(922.172656 89.554688)scale(0.1 -0.1)">
      <use xlink:href="#DejaVuSans-20"/>
      <use xlink:href="#DejaVuSans-53" x="31.787109"/>
      <use xlink:href="#DejaVuSans-53" x="95.263672"/>
      <use xlink:href="#DejaVuSans-44" x="158.740234"/>
     </g>
    </g>
   </g>
  </g>
 </g>
 <defs>
  <clipPath id="p43588a4232">
   <rect x="135" y="43.2" width="246.176471" height="271.8"/>
  </clipPath>
  <clipPath id="pce22d5bed8">
   <rect x="430.411765" y="43.2" width="246.176471" height="271.8"/>
  </clipPath>
  <clipPath id="p7d2c322c77">
   <rect x="725.823529" y="43.2" width="246.176471" height="271.8"/>
  </clipPath>
 </defs>
</svg>
